<?xml version="1.0" encoding="UTF-8"?>
<svg id="Calque_1" data-name="Calque 1" xmlns="http://www.w3.org/2000/svg" viewBox="0 0 22 21">
  <defs>
    <style>
      .cls-1 {
        fill: none;
        stroke: #101010;
      }
    </style>
  </defs>
  <path class="cls-1" d="m12.22,2.41h0s-.85.95-.85.95l-.37.42-.37-.42-.85-.95h0C7.78.16,4.6-.17,2.48,1.81-.02,4.13-.15,8.33,2.08,10.85l8.31,9.37s0,0,0,0c.34.38.86.38,1.2,0h0s8.31-9.37,8.31-9.37h0c2.24-2.53,2.11-6.72-.39-9.05-.25-.22-1.66-1.41-3.76-1.24-2.12.17-3.34,1.6-3.55,1.85Zm0,0C14.22.16,17.4-.17,19.52,1.81c-.39-.35-1.35-1.11-2.76-1.27-2.59-.3-4.37,1.68-4.55,1.88Z"/>
</svg>